<svg width="38" height="38" viewBox="0 0 38 38" fill="none" xmlns="http://www.w3.org/2000/svg">
<path d="M15.22 0H14.55C10.9215 0.00523461 7.44237 1.44556 4.87194 4.00662C2.30152 6.56768 0.848499 10.0415 0.830017 13.67C0.833738 14.8929 0.998487 16.1101 1.32002 17.29C1.90432 19.4324 3.001 21.4005 4.51549 23.0245C6.02998 24.6486 7.9168 25.8798 10.0132 26.6121C12.1096 27.3444 14.3527 27.5557 16.549 27.2278C18.7453 26.8999 20.8289 26.0427 22.62 24.73L34.62 36.73C34.8524 36.9614 35.167 37.0914 35.495 37.0914C35.823 37.0914 36.1376 36.9614 36.37 36.73L37.61 35.49C37.8415 35.2576 37.9714 34.943 37.9714 34.615C37.9714 34.287 37.8415 33.9724 37.61 33.74L25.61 21.74C27.0653 19.7445 27.9536 17.3924 28.1808 14.9331C28.4081 12.4737 27.9657 9.99873 26.9008 7.77033C25.8358 5.54194 24.1877 3.64315 22.1314 2.2752C20.075 0.907246 17.6869 0.121076 15.22 0ZM14.55 23.19C12.8314 23.1935 11.144 22.7302 9.66812 21.8496C8.19222 20.969 6.98316 19.7041 6.17002 18.19C5.43988 16.8241 5.05858 15.2988 5.06002 13.75C5.05579 12.2886 5.39018 10.8461 6.03698 9.53569C6.68378 8.22524 7.62538 7.08245 8.78794 6.19697C9.9505 5.31149 11.3024 4.70738 12.7376 4.43204C14.1728 4.1567 15.6523 4.21761 17.06 4.61C19.2811 5.21179 21.2075 6.60092 22.4798 8.51831C23.7522 10.4357 24.2837 12.7504 23.9753 15.0308C23.6668 17.3112 22.5394 19.4016 20.8034 20.912C19.0673 22.4225 16.8412 23.2499 14.54 23.24L14.55 23.19Z" fill="#6F00FF"/>
</svg>
